<svg width="22" height="22" viewBox="0 0 22 22" fill="none" xmlns="http://www.w3.org/2000/svg">
<g clip-path="url(#clip0_1_16733)">
<path d="M21.0833 21.9999H0.916667C0.4125 21.9999 0 21.5874 0 21.0832C0 20.5791 0.4125 20.1666 0.916667 20.1666H21.0833C21.5875 20.1666 22 20.5791 22 21.0832C22 21.5874 21.5875 21.9999 21.0833 21.9999ZM13.5392 17.2882L19.36 11.1007C20.1575 10.3032 20.3867 9.16656 19.9558 8.13072C19.525 7.09489 18.5625 6.44406 17.435 6.43489H15.5833V2.74072C15.5925 1.20989 14.3367 -0.00927734 12.815 -0.00927734H9.16667C7.645 -0.00927734 6.41667 1.21906 6.41667 2.74072V6.40739H4.7025C3.63 6.40739 2.59417 6.96656 2.12667 7.92906C1.60417 9.01072 1.815 10.2299 2.62167 11.0457L8.3875 17.2791C9.09333 17.9849 10.0283 18.3424 10.9633 18.3424C11.8983 18.3424 12.8242 17.9849 13.5392 17.2791V17.2882Z" fill="black"/>
</g>
<defs>
<clipPath id="clip0_1_16733">
<rect width="22" height="22" fill="white"/>
</clipPath>
</defs>
</svg>
