<svg width="99" height="20" viewBox="0 0 99 20" fill="none" xmlns="http://www.w3.org/2000/svg">
  <path
    d="M4.434 3.79V8.34H10.544V11.226H4.434V16.036H11.324V19H0.794V0.825998H11.324V3.79H4.434ZM13.7479 9.9C13.7479 8.11467 14.1466 6.52 14.9439 5.116C15.7586 3.69467 16.8592 2.594 18.2459 1.814C19.6499 1.01667 21.2186 0.618 22.9519 0.618C24.9799 0.618 26.7566 1.138 28.2819 2.178C29.8072 3.218 30.8732 4.65667 31.4799 6.494H27.2939C26.8779 5.62733 26.2886 4.97733 25.5259 4.544C24.7806 4.11067 23.9139 3.894 22.9259 3.894C21.8686 3.894 20.9239 4.14533 20.0919 4.648C19.2772 5.13333 18.6359 5.82667 18.1679 6.728C17.7172 7.62933 17.4919 8.68667 17.4919 9.9C17.4919 11.096 17.7172 12.1533 18.1679 13.072C18.6359 13.9733 19.2772 14.6753 20.0919 15.178C20.9239 15.6633 21.8686 15.906 22.9259 15.906C23.9139 15.906 24.7806 15.6893 25.5259 15.256C26.2886 14.8053 26.8779 14.1467 27.2939 13.28H31.4799C30.8732 15.1347 29.8072 16.582 28.2819 17.622C26.7739 18.6447 24.9972 19.156 22.9519 19.156C21.2186 19.156 19.6499 18.766 18.2459 17.986C16.8592 17.1887 15.7586 16.088 14.9439 14.684C14.1466 13.28 13.7479 11.6853 13.7479 9.9ZM43.0129 19.182C41.3143 19.182 39.7543 18.7833 38.3329 17.986C36.9116 17.1887 35.7849 16.088 34.9529 14.684C34.1209 13.2627 33.7049 11.6593 33.7049 9.874C33.7049 8.106 34.1209 6.52 34.9529 5.116C35.7849 3.69467 36.9116 2.58533 38.3329 1.788C39.7543 0.990666 41.3143 0.592 43.0129 0.592C44.7289 0.592 46.2889 0.990666 47.6929 1.788C49.1143 2.58533 50.2323 3.69467 51.0469 5.116C51.8789 6.52 52.2949 8.106 52.2949 9.874C52.2949 11.6593 51.8789 13.2627 51.0469 14.684C50.2323 16.088 49.1143 17.1887 47.6929 17.986C46.2716 18.7833 44.7116 19.182 43.0129 19.182ZM43.0129 15.932C44.1049 15.932 45.0669 15.6893 45.8989 15.204C46.7309 14.7013 47.3809 13.9907 47.8489 13.072C48.3169 12.1533 48.5509 11.0873 48.5509 9.874C48.5509 8.66067 48.3169 7.60333 47.8489 6.702C47.3809 5.78333 46.7309 5.08133 45.8989 4.596C45.0669 4.11067 44.1049 3.868 43.0129 3.868C41.9209 3.868 40.9503 4.11067 40.1009 4.596C39.2689 5.08133 38.6189 5.78333 38.1509 6.702C37.6829 7.60333 37.4489 8.66067 37.4489 9.874C37.4489 11.0873 37.6829 12.1533 38.1509 13.072C38.6189 13.9907 39.2689 14.7013 40.1009 15.204C40.9503 15.6893 41.9209 15.932 43.0129 15.932ZM74.789 0.852V19H71.149V7.196L66.287 19H63.531L58.643 7.196V19H55.003V0.852H59.137L64.909 14.346L70.681 0.852H74.789ZM98.1738 0.852V19H94.5338V7.196L89.6718 19H86.9158L82.0278 7.196V19H78.3878V0.852H82.5218L88.2938 14.346L94.0658 0.852H98.1738Z"
    fill="#1D4ED8" />
</svg>