<svg width="61" height="76" viewBox="0 0 61 76" fill="none" xmlns="http://www.w3.org/2000/svg">
<path d="M17.866 50.0111L18.3319 55.3521L18.986 56.3333L19.6401 55.3521L20.106 50.0111C20.1483 49.0629 20.9295 48.3159 21.8788 48.3159L22.8741 47.0571H15.0979L16.0932 48.3159C17.0425 48.3159 17.8237 49.0629 17.866 50.0111Z" fill="white"/>
<path d="M18.986 45.4819C20.2624 45.4819 21.2976 44.4467 21.2976 43.1702C21.2976 42.555 21.0576 41.9962 20.6659 41.5821C20.5071 43.502 18.6483 42.9314 19.3965 41.4315C19.8518 40.5186 19.6377 39.621 18.7507 39.1763C19.0824 40.8362 16.6731 41.2903 16.6731 43.1691C16.6743 44.4467 17.7084 45.4819 18.986 45.4819Z" fill="white"/>
<path d="M36.276 18.1272C36.4312 17.8155 36.5689 17.7543 37.0195 17.8049C37.0195 17.852 37.0195 17.9014 37.0195 17.9508C37.0195 19.6695 37.0206 21.3883 37.0183 23.1071C37.0183 23.3894 37.0795 23.6494 37.2618 23.8729C37.4747 24.1329 37.75 24.2623 38.0841 24.287C38.4818 24.3164 38.8817 24.3376 39.2735 24.4047C39.9523 24.5211 40.5829 24.7682 41.1287 25.2011C41.184 25.2446 41.237 25.2917 41.2899 25.3376C41.3017 25.347 41.3099 25.3599 41.3287 25.3799C41.0875 25.3387 40.8605 25.2917 40.6311 25.2599C39.9535 25.1658 39.2723 25.1423 38.5935 25.2187C38.0077 25.2846 37.4253 25.3858 36.843 25.4787C36.563 25.5234 36.4124 25.4434 36.2748 25.1529C36.276 22.8118 36.276 20.4695 36.276 18.1272Z" fill="white"/>
<path d="M41.9534 25.0212C41.7746 24.8718 41.6134 24.7236 41.4382 24.593C40.7899 24.1118 40.0547 23.8377 39.2618 23.7224C38.8994 23.6695 38.5312 23.6483 38.1642 23.6248C37.8559 23.6048 37.6865 23.4425 37.6865 23.1354C37.6865 21.0214 37.6865 18.9073 37.6865 16.7933C37.6865 16.4627 37.8724 16.2957 38.2053 16.3051C38.8065 16.3227 39.3971 16.398 39.9688 16.5945C40.7511 16.8627 41.4005 17.3086 41.8534 18.0121C41.9111 18.1026 41.9534 18.2215 41.9546 18.3285C41.9605 20.5402 41.9593 22.7519 41.9593 24.9636C41.9581 24.98 41.9558 24.9953 41.9534 25.0212Z" fill="white"/>
<path d="M42.6228 25.0186C42.6228 24.9622 42.6228 24.9151 42.6228 24.8692C42.6228 22.7587 42.6287 20.6494 42.6158 18.5389C42.6134 18.2236 42.7205 17.9836 42.9099 17.7518C43.5028 17.0225 44.2886 16.6201 45.1921 16.4425C45.5968 16.3637 46.0133 16.3401 46.4262 16.3084C46.7121 16.286 46.8944 16.4836 46.8956 16.7848C46.8968 17.9554 46.8956 19.1259 46.8956 20.2965C46.8956 21.2317 46.8956 22.1681 46.8956 23.1034C46.8956 23.4552 46.7356 23.6175 46.3803 23.6246C45.5227 23.641 44.6922 23.781 43.9075 24.1422C43.4781 24.3398 43.0875 24.5975 42.7463 24.9269C42.7181 24.9539 42.6899 24.981 42.6605 25.008C42.6558 25.0116 42.6463 25.0116 42.6228 25.0186Z" fill="white"/>
<path d="M47.5614 17.799C47.6979 17.799 47.8155 17.7907 47.932 17.8013C48.1261 17.8178 48.2814 17.9836 48.3025 18.1825C48.3061 18.2178 48.3061 18.2531 48.3061 18.2883C48.3061 20.5247 48.3073 22.7599 48.3037 24.9963C48.3037 25.0975 48.279 25.2093 48.2308 25.2975C48.1461 25.4504 47.9967 25.5175 47.8214 25.4881C47.5096 25.4363 47.2002 25.3657 46.8873 25.3187C45.6791 25.1363 44.4721 25.1116 43.2345 25.394C43.3145 25.3222 43.3663 25.2693 43.4239 25.2234C44.0098 24.7528 44.6909 24.4999 45.4227 24.3834C45.7579 24.3293 46.0991 24.3093 46.4379 24.2917C47.1214 24.2564 47.5602 23.8081 47.5614 23.1199C47.5626 21.5188 47.5614 19.9165 47.5614 18.3154C47.5614 18.146 47.5614 17.9789 47.5614 17.799Z" fill="white"/>
<path d="M58.5222 2.18213V47.4028C58.5222 51.285 57.3834 55.0849 55.2282 58.3918C53.0635 61.7141 49.9672 64.3951 46.2744 66.1469L30.6079 73.5748L14.9414 66.1469C11.2486 64.3963 8.15341 61.7141 5.98761 58.3918C3.83239 55.0849 2.69361 51.285 2.69361 47.4028V2.18213H20.6718C25.1057 2.18213 28.7138 5.55966 28.7138 9.71127C28.7138 10.7571 29.562 11.6053 30.6079 11.6053C31.6537 11.6053 32.5019 10.7571 32.5019 9.71127C32.5019 5.55966 36.1089 2.18213 40.544 2.18213H58.5222ZM60.4162 0.288086H40.544C35.056 0.288086 30.6079 4.50675 30.6079 9.71127C30.6079 4.50675 26.1598 0.288086 20.6718 0.288086H0.799561V47.4028C0.799561 56.0649 5.96055 63.9846 14.1308 67.8586L30.6091 75.6724L47.0873 67.8586C55.2576 63.9846 60.4174 56.0649 60.4174 47.4028V0.288086H60.4162Z" fill="white"/>
<path d="M17.3978 62.9694L30.6079 69.5738L43.818 62.9694C47.0779 61.3388 49.8142 58.8389 51.7295 55.739C53.6459 52.6391 54.6588 49.0734 54.6588 45.4288V5.88086H38.3558C34.9336 5.88086 31.9749 7.90079 30.6079 10.8101C29.2409 7.90079 26.2822 5.88086 22.8599 5.88086H6.55701V45.4277C6.55701 49.0722 7.56991 52.638 9.48631 55.7379C11.4015 58.8389 14.1379 61.3388 17.3978 62.9694ZM38.3558 48.4946C35.5748 48.4946 33.0996 49.8298 31.5361 51.8921C32.1408 48.6769 34.9677 46.2347 38.3558 46.2347H53.0247C52.9906 46.9947 52.9106 47.7499 52.7812 48.4946H38.3558ZM52.4236 50.1087C52.2165 50.878 51.9577 51.6321 51.6506 52.3686H38.357C35.5759 52.3686 33.1007 53.7038 31.5373 55.7661C32.1419 52.5509 34.9689 50.1087 38.357 50.1087H52.4236ZM38.3558 44.6206C35.5748 44.6206 33.0996 45.9559 31.5361 48.0181C32.1408 44.803 34.9677 42.3607 38.3558 42.3607H53.0447V44.6206H38.3558ZM38.3558 40.7466C35.5748 40.7466 33.0996 42.0819 31.5361 44.1442C32.1408 40.929 34.9677 38.4867 38.3558 38.4867H53.0447V40.7466H38.3558ZM38.3558 36.8727C35.5748 36.8727 33.0996 38.2079 31.5361 40.2702C32.1408 37.055 34.9677 34.6127 38.3558 34.6127H53.0447V36.8727H38.3558ZM22.8599 15.2429C26.248 15.2429 29.0762 17.684 29.6797 20.9003C28.1162 18.838 25.641 17.5028 22.8599 17.5028H8.17107V15.2429H22.8599ZM8.17107 13.6288V11.3689H22.8599C26.248 11.3689 29.0762 13.81 29.6797 17.0263C28.1162 14.9641 25.641 13.6288 22.8599 13.6288H8.17107ZM22.8599 19.1168C26.248 19.1168 29.0762 21.5579 29.6797 24.7743C28.1162 22.712 25.641 21.3768 22.8599 21.3768H8.17107V19.1168H22.8599ZM22.8599 22.9908C26.248 22.9908 29.0762 25.4319 29.6797 28.6483C28.1162 26.586 25.641 25.2507 22.8599 25.2507H8.17107V22.9908H22.8599ZM22.8599 26.8648C26.248 26.8648 29.0762 29.3059 29.6797 32.5222C28.1162 30.46 25.641 29.1247 22.8599 29.1247H8.17107V26.8648H22.8599ZM22.8599 30.7388C26.248 30.7388 29.0762 33.1799 29.6797 36.3962C28.1162 34.3339 25.641 32.9987 22.8599 32.9987H8.17107V30.7388H22.8599ZM31.5526 67.2974C32.1925 64.1258 34.9995 61.7306 38.3558 61.7306H42.6851L31.5526 67.2974ZM45.4426 60.1165H38.3558C35.5748 60.1165 33.0996 61.4518 31.5361 63.514C32.1408 60.2989 34.9677 57.8566 38.3558 57.8566H48.0637C47.2661 58.693 46.3873 59.4483 45.4426 60.1165ZM49.4296 56.2425H38.3558C35.5748 56.2425 33.0996 57.5778 31.5361 59.6401C32.1408 56.4249 34.9677 53.9826 38.3558 53.9826H50.8789C50.713 54.2885 50.5413 54.592 50.3566 54.8897C50.0683 55.3567 49.7578 55.8061 49.4296 56.2425ZM31.4149 14.4358C31.4149 10.6089 34.5289 7.49492 38.3558 7.49492H53.0447V32.9987H38.3558C35.5006 32.9987 32.9702 34.4057 31.4149 36.5621V14.4358ZM22.8599 7.49492C26.248 7.49492 29.0762 9.93601 29.6797 13.1524C28.1162 11.0901 25.641 9.75484 22.8599 9.75484H8.17107V7.49492H22.8599ZM8.17107 34.6127H22.8599C26.6869 34.6127 29.8009 37.7268 29.8009 41.5537V67.3657L18.1201 61.5247C15.1285 60.0283 12.618 57.7343 10.8592 54.8885C9.10044 52.0427 8.17107 48.7711 8.17107 45.4265V34.6127Z" fill="white"/>
</svg>
