<svg width="169" height="87" viewBox="0 0 169 87" fill="none" xmlns="http://www.w3.org/2000/svg">
<path d="M19.7712 57.4879L20.3055 63.6126L21.0555 64.7377L21.8056 63.6126L22.3398 57.4879C22.3884 56.4006 23.2841 55.5439 24.3728 55.5439L25.5141 54.1005H16.5969L17.7382 55.5439C18.8269 55.5439 19.7227 56.4006 19.7712 57.4879Z" fill="white"/>
<path d="M21.0553 52.2941C22.519 52.2941 23.7062 51.107 23.7062 49.6432C23.7062 48.9377 23.431 48.2969 22.9817 47.822C22.7996 50.0237 20.6681 49.3694 21.5261 47.6494C22.0482 46.6025 21.8027 45.5732 20.7855 45.0632C21.1659 46.9667 18.4031 47.4875 18.4031 49.6419C18.4044 51.107 19.5902 52.2941 21.0553 52.2941Z" fill="white"/>
<path d="M40.8822 20.9259C41.0603 20.5684 41.2181 20.4982 41.7348 20.5562C41.7348 20.6102 41.7348 20.6669 41.7348 20.7235C41.7348 22.6945 41.7362 24.6654 41.7335 26.6364C41.7335 26.9602 41.8036 27.2583 42.0127 27.5146C42.2569 27.8128 42.5726 27.9612 42.9557 27.9895C43.4117 28.0232 43.8704 28.0475 44.3196 28.1244C45.098 28.2579 45.8211 28.5412 46.447 29.0377C46.5104 29.0876 46.5711 29.1416 46.6318 29.1942C46.6453 29.205 46.6548 29.2198 46.6764 29.2428C46.3998 29.1955 46.1394 29.1416 45.8764 29.1052C45.0993 28.9972 44.3182 28.9702 43.5398 29.0579C42.868 29.1335 42.2002 29.2495 41.5325 29.3561C41.2114 29.4073 41.0387 29.3156 40.8809 28.9824C40.8822 26.2978 40.8822 23.6118 40.8822 20.9259Z" fill="white"/>
<path d="M47.3928 28.8315C47.1877 28.6601 47.0029 28.4902 46.8019 28.3404C46.0585 27.7886 45.2154 27.4743 44.3061 27.3421C43.8906 27.2814 43.4684 27.2571 43.0475 27.2301C42.694 27.2072 42.4998 27.021 42.4998 26.6689C42.4998 24.2447 42.4998 21.8205 42.4998 19.3962C42.4998 19.0171 42.7129 18.8256 43.0947 18.8364C43.784 18.8566 44.4613 18.9429 45.1169 19.1682C46.014 19.4758 46.7587 19.9871 47.2781 20.7938C47.3442 20.8977 47.3927 21.034 47.3941 21.1567C47.4008 23.6929 47.3995 26.2291 47.3995 28.7654C47.3981 28.7842 47.3954 28.8018 47.3928 28.8315Z" fill="white"/>
<path d="M48.1602 28.8288C48.1602 28.764 48.1602 28.71 48.1602 28.6574C48.1602 26.2372 48.167 23.8184 48.1521 21.3982C48.1494 21.0367 48.2722 20.7615 48.4894 20.4957C49.1693 19.6593 50.0705 19.1979 51.1066 18.9942C51.5706 18.9038 52.0482 18.8768 52.5217 18.8404C52.8495 18.8148 53.0586 19.0414 53.06 19.3868C53.0613 20.7291 53.06 22.0714 53.06 23.4137C53.06 24.4862 53.06 25.56 53.06 26.6325C53.06 27.0359 52.8765 27.222 52.4691 27.2301C51.4856 27.249 50.5332 27.4096 49.6334 27.8237C49.141 28.0504 48.6931 28.3458 48.3019 28.7235C48.2695 28.7546 48.2371 28.7856 48.2034 28.8166C48.198 28.8207 48.1872 28.8207 48.1602 28.8288Z" fill="white"/>
<path d="M53.8236 20.5497C53.9801 20.5497 54.115 20.5403 54.2486 20.5524C54.4712 20.5713 54.6492 20.7615 54.6735 20.9895C54.6776 21.03 54.6776 21.0704 54.6776 21.1109C54.6776 23.6754 54.6789 26.2386 54.6749 28.8032C54.6749 28.9192 54.6465 29.0473 54.5912 29.1485C54.4941 29.3239 54.3228 29.4008 54.1218 29.3671C53.7643 29.3077 53.4095 29.2268 53.0506 29.1728C51.6651 28.9637 50.281 28.9354 48.8618 29.2591C48.9536 29.1769 49.0129 29.1162 49.079 29.0635C49.7508 28.5239 50.5319 28.2339 51.371 28.1003C51.7555 28.0383 52.1467 28.0153 52.5353 27.9951C53.3191 27.9546 53.8223 27.4406 53.8236 26.6514C53.825 24.8154 53.8236 22.978 53.8236 21.1419C53.8236 20.9477 53.8236 20.7561 53.8236 20.5497Z" fill="white"/>
<path d="M66.3928 2.64133V54.4973C66.3928 58.9492 65.0869 63.3066 62.6154 67.0988C60.1332 70.9085 56.5825 73.983 52.3478 75.9917L34.3826 84.5096L16.4173 75.9917C12.1827 73.9843 8.63333 70.9085 6.14974 67.0988C3.67828 63.3066 2.3724 58.9492 2.3724 54.4973V2.64133H22.9885C28.0731 2.64133 32.2106 6.51444 32.2106 11.2752C32.2106 12.4745 33.1833 13.4472 34.3826 13.4472C35.5819 13.4472 36.5546 12.4745 36.5546 11.2752C36.5546 6.51444 40.6907 2.64133 45.7766 2.64133H66.3928ZM68.5647 0.46936H45.7766C39.4833 0.46936 34.3826 5.30704 34.3826 11.2752C34.3826 5.30704 29.2818 0.46936 22.9885 0.46936H0.200439V54.4973C0.200439 64.4304 6.11871 73.5122 15.4878 77.9546L34.3839 86.9149L53.28 77.9546C62.6492 73.5122 68.5661 64.4304 68.5661 54.4973V0.46936H68.5647Z" fill="white"/>
<path d="M19.2344 72.3478L34.3829 79.9214L49.5313 72.3478C53.2696 70.4781 56.4074 67.6113 58.6037 64.0566C60.8013 60.5019 61.9628 56.4129 61.9628 52.2335V6.88263H43.2677C39.3433 6.88263 35.9505 9.19894 34.3829 12.5351C32.8153 9.19894 29.4224 6.88263 25.4981 6.88263H6.80298V52.2322C6.80298 56.4115 7.96451 60.5005 10.1621 64.0552C12.3584 67.6113 15.4962 70.4781 19.2344 72.3478ZM43.2677 55.7492C40.0786 55.7492 37.2402 57.2803 35.4473 59.6452C36.1407 55.9583 39.3825 53.1576 43.2677 53.1576H60.089C60.0499 54.0291 59.9581 54.8952 59.8097 55.7492H43.2677ZM59.3996 57.6C59.1622 58.4823 58.8654 59.3471 58.5133 60.1916H43.2691C40.0799 60.1916 37.2415 61.7227 35.4486 64.0876C36.142 60.4007 39.3838 57.6 43.2691 57.6H59.3996ZM43.2677 51.3067C40.0786 51.3067 37.2402 52.8379 35.4473 55.2028C36.1407 51.5158 39.3825 48.7152 43.2677 48.7152H60.1119V51.3067H43.2677ZM43.2677 46.8643C40.0786 46.8643 37.2402 48.3955 35.4473 50.7604C36.1407 47.0734 39.3825 44.2728 43.2677 44.2728H60.1119V46.8643H43.2677ZM43.2677 42.4219C40.0786 42.4219 37.2402 43.9531 35.4473 46.318C36.1407 42.631 39.3825 39.8304 43.2677 39.8304H60.1119V42.4219H43.2677ZM25.4981 17.6183C29.3833 17.6183 32.6264 20.4176 33.3185 24.1059C31.5256 21.741 28.6872 20.2099 25.4981 20.2099H8.65387V17.6183H25.4981ZM8.65387 15.7675V13.1759H25.4981C29.3833 13.1759 32.6264 15.9752 33.3185 19.6635C31.5256 17.2986 28.6872 15.7675 25.4981 15.7675H8.65387ZM25.4981 22.0608C29.3833 22.0608 32.6264 24.86 33.3185 28.5483C31.5256 26.1834 28.6872 24.6523 25.4981 24.6523H8.65387V22.0608H25.4981ZM25.4981 26.5032C29.3833 26.5032 32.6264 29.3024 33.3185 32.9907C31.5256 30.6259 28.6872 29.0947 25.4981 29.0947H8.65387V26.5032H25.4981ZM25.4981 30.9456C29.3833 30.9456 32.6264 33.7449 33.3185 37.4331C31.5256 35.0683 28.6872 33.5371 25.4981 33.5371H8.65387V30.9456H25.4981ZM25.4981 35.388C29.3833 35.388 32.6264 38.1873 33.3185 41.8756C31.5256 39.5107 28.6872 37.9795 25.4981 37.9795H8.65387V35.388H25.4981ZM35.4662 77.311C36.2001 73.6739 39.4189 70.9273 43.2677 70.9273H48.2322L35.4662 77.311ZM51.3944 69.0764H43.2677C40.0786 69.0764 37.2402 70.6076 35.4473 72.9724C36.1407 69.2855 39.3825 66.4849 43.2677 66.4849H54.4001C53.4854 67.444 52.4777 68.3101 51.3944 69.0764ZM55.9663 64.634H43.2677C40.0786 64.634 37.2402 66.1651 35.4473 68.53C36.1407 64.8431 39.3825 62.0425 43.2677 62.0425H57.6283C57.4381 62.3932 57.2411 62.7413 57.0293 63.0826C56.6988 63.6181 56.3427 64.1335 55.9663 64.634ZM35.3083 16.6929C35.3083 12.3044 38.8793 8.73352 43.2677 8.73352H60.1119V37.9795H43.2677C39.9936 37.9795 37.0918 39.593 35.3083 42.0658V16.6929ZM25.4981 8.73352C29.3833 8.73352 32.6264 11.5328 33.3185 15.2211C31.5256 12.8562 28.6872 11.325 25.4981 11.325H8.65387V8.73352H25.4981ZM8.65387 39.8304H25.4981C29.8865 39.8304 33.4574 43.4013 33.4574 47.7898V77.3892L20.0628 70.6912C16.6321 68.9752 13.7533 66.3446 11.7364 63.0812C9.71962 59.8179 8.65387 56.0662 8.65387 52.2308V39.8304Z" fill="white"/>
<path d="M80.1018 51.0137V14.7595H88.1637V51.0137H80.1018Z" fill="#EA5B28"/>
<path d="M100.759 51.0137V21.4521H92.2744V14.7595H117.305V21.4521H108.82V51.0137H100.759Z" fill="#EA5B28"/>
<path d="M121.361 51.0137V14.7595H143.019V21.1877H129.424V29.514H141.018V35.8896H129.424V44.5842H143.02V51.0124H121.361V51.0137Z" fill="#EA5B28"/>
<path d="M161.147 51.4361C158.758 51.4361 156.774 51.2512 155.193 50.883C153.612 50.5147 152.329 49.8995 151.346 49.0388C150.363 48.1781 149.625 47.0449 149.133 45.6406C148.64 44.2362 148.307 42.4784 148.132 40.3712C147.955 38.264 147.869 35.7696 147.869 32.888C147.869 30.0078 147.956 27.5134 148.132 25.4049C148.307 23.2976 148.65 21.5317 149.16 20.1085C149.668 18.6853 150.416 17.5534 151.399 16.7102C152.383 15.8671 153.666 15.2614 155.245 14.8917C156.826 14.5234 158.793 14.3386 161.147 14.3386C162.061 14.3386 162.991 14.3737 163.94 14.4438C164.888 14.514 165.802 14.6206 166.68 14.7595C167.558 14.8998 168.278 15.059 168.841 15.2344V21.2417C167.963 21.1365 167.163 21.0488 166.444 20.9786C165.723 20.9085 165.073 20.8559 164.494 20.8208C163.914 20.7857 163.396 20.7682 162.94 20.7682C161.605 20.7682 160.507 20.8397 159.647 20.9786C158.786 21.1189 158.101 21.409 157.593 21.8488C157.083 22.2886 156.714 22.9469 156.486 23.8251C156.257 24.7034 156.109 25.8797 156.038 27.3556C155.967 28.8314 155.933 30.6756 155.933 32.888C155.933 35.1018 155.968 36.946 156.038 38.4205C156.109 39.8963 156.257 41.074 156.486 41.9509C156.714 42.8291 157.083 43.4875 157.593 43.9273C158.101 44.3671 158.786 44.6571 159.647 44.7974C160.508 44.9377 161.605 45.0079 162.94 45.0079C163.959 45.0079 165.022 44.9647 166.128 44.8757C167.234 44.788 168.192 44.6746 169 44.533V50.5929C168.367 50.7696 167.604 50.918 166.708 51.0408C165.812 51.1636 164.881 51.2593 163.916 51.3308C162.947 51.3996 162.024 51.4361 161.147 51.4361Z" fill="#EA5B28"/>
<path d="M81.3184 64.2292H80.2297V58.0088H81.3184V64.2292Z" fill="white"/>
<path d="M82.5435 64.2293V60.0257H83.5053L83.5903 60.5707C83.8547 60.1457 84.3647 59.8989 84.9353 59.8989C85.9903 59.8989 86.5353 60.5545 86.5353 61.6432V64.2307H85.4965V61.8901C85.4965 61.1832 85.1471 60.8432 84.6115 60.8432C83.9734 60.8432 83.5822 61.2857 83.5822 61.967V64.2307H82.5435V64.2293Z" fill="white"/>
<path d="M88.1676 62.9532C88.1757 63.3188 88.4482 63.5494 88.9244 63.5494C89.41 63.5494 89.6731 63.3538 89.6731 63.0476C89.6731 62.8344 89.5625 62.682 89.1874 62.597L88.4306 62.4189C87.6738 62.249 87.3069 61.8915 87.3069 61.2196C87.3069 60.394 88.0043 59.9003 88.9743 59.9003C89.9186 59.9003 90.5567 60.4453 90.5662 61.2615H89.5787C89.5706 60.904 89.3318 60.6746 88.9325 60.6746C88.5237 60.6746 88.2863 60.8621 88.2863 61.1765C88.2863 61.4152 88.4738 61.5677 88.8313 61.6527L89.5881 61.8308C90.295 61.9926 90.6512 62.3164 90.6512 62.9626C90.6512 63.8139 89.9281 64.3413 88.8893 64.3413C87.8424 64.3413 87.1787 63.7801 87.1787 62.9545H88.1676V62.9532Z" fill="white"/>
<path d="M91.8344 64.2293V60.8931H91.0264V60.0256H91.8344V58.7157H92.8732V60.0256H93.6894V60.8931H92.8719V64.2293H91.8344Z" fill="white"/>
<path d="M94.2168 58.554C94.2168 58.2046 94.4974 57.9321 94.8549 57.9321C95.1949 57.9321 95.4768 58.2046 95.4768 58.554C95.4768 58.9034 95.1962 59.184 94.8549 59.184C94.4974 59.184 94.2168 58.902 94.2168 58.554ZM94.3355 60.0258H95.3743V64.2294H94.3355V60.0258Z" fill="white"/>
<path d="M96.8379 64.2293V60.8931H96.0298V60.0256H96.8379V58.7157H97.8766V60.0256H98.6942V60.8931H97.8766V64.2293H96.8379Z" fill="white"/>
<path d="M103.227 60.0256V64.2293H102.265L102.188 63.6681C101.933 64.0674 101.388 64.3399 100.827 64.3399C99.857 64.3399 99.2864 63.6842 99.2864 62.6549V60.0256H100.325V62.2893C100.325 63.0893 100.639 63.4131 101.218 63.4131C101.874 63.4131 102.188 63.03 102.188 62.23V60.0256H103.227Z" fill="white"/>
<path d="M104.691 64.2293V60.8931H103.883V60.0256H104.691V58.7157H105.729V60.0256H106.547V60.8931H105.729V64.2293H104.691Z" fill="white"/>
<path d="M109.148 59.907C110.45 59.907 111.394 60.8095 111.394 62.1194C111.394 63.4293 110.45 64.3319 109.148 64.3319C107.846 64.3319 106.902 63.4293 106.902 62.1194C106.902 60.8081 107.846 59.907 109.148 59.907ZM109.148 63.4037C109.863 63.4037 110.357 62.8843 110.357 62.1194C110.357 61.3532 109.863 60.8338 109.148 60.8338C108.433 60.8338 107.94 61.3532 107.94 62.1194C107.941 62.8843 108.435 63.4037 109.148 63.4037Z" fill="white"/>
<path d="M114.27 62.145C114.27 60.8351 115.037 59.8988 116.305 59.8988C116.891 59.8988 117.411 60.1457 117.675 60.5626V57.8982H118.705V64.2293H117.752L117.685 63.5736C117.43 64.0593 116.885 64.3399 116.247 64.3399C115.027 64.3399 114.27 63.4468 114.27 62.145ZM117.664 62.1099C117.664 61.3531 117.196 60.8256 116.473 60.8256C115.75 60.8256 115.308 61.3612 115.308 62.1099C115.308 62.8586 115.75 63.3861 116.473 63.3861C117.198 63.3875 117.664 62.8681 117.664 62.1099Z" fill="white"/>
<path d="M119.536 62.1274C119.536 60.8081 120.395 59.8975 121.629 59.8975C122.888 59.8975 123.688 60.7393 123.688 62.0505V62.3649L120.523 62.373C120.6 63.1136 120.991 63.4873 121.681 63.4873C122.251 63.4873 122.625 63.266 122.744 62.8667H123.706C123.527 63.7854 122.761 64.3385 121.663 64.3385C120.413 64.3399 119.536 63.4293 119.536 62.1274ZM120.549 61.7106H122.659C122.659 61.1318 122.259 60.7487 121.637 60.7487C121.025 60.7487 120.651 61.0806 120.549 61.7106Z" fill="white"/>
<path d="M126.428 58.0088H131.159V59.0125H129.338V64.2292H128.249V59.0125H126.428V58.0088Z" fill="white"/>
<path d="M130.877 62.1274C130.877 60.8081 131.736 59.8975 132.971 59.8975C134.231 59.8975 135.029 60.7393 135.029 62.0505V62.3649L131.864 62.373C131.941 63.1136 132.333 63.4873 133.022 63.4873C133.593 63.4873 133.966 63.266 134.085 62.8667H135.047C134.869 63.7854 134.103 64.3385 133.004 64.3385C131.754 64.3399 130.877 63.4293 130.877 62.1274ZM131.89 61.7106H134C134 61.1318 133.601 60.7487 132.979 60.7487C132.366 60.7487 131.991 61.0806 131.89 61.7106Z" fill="white"/>
<path d="M137.718 59.8975C138.867 59.8975 139.65 60.5356 139.76 61.5487H138.722C138.603 61.0725 138.254 60.8256 137.76 60.8256C137.096 60.8256 136.654 61.3275 136.654 62.1193C136.654 62.9112 137.062 63.4036 137.726 63.4036C138.246 63.4036 138.611 63.1487 138.722 62.6886H139.769C139.64 63.6667 138.824 64.3399 137.726 64.3399C136.45 64.3399 135.616 63.4549 135.616 62.1193C135.616 60.8175 136.476 59.8975 137.718 59.8975Z" fill="white"/>
<path d="M140.542 64.2293V60.0257H141.503L141.588 60.5707C141.853 60.1457 142.363 59.8989 142.933 59.8989C143.988 59.8989 144.533 60.5545 144.533 61.6432V64.2307H143.495V61.8901C143.495 61.1832 143.145 60.8432 142.61 60.8432C141.971 60.8432 141.58 61.2857 141.58 61.967V64.2307H140.542V64.2293Z" fill="white"/>
<path d="M147.553 59.907C148.855 59.907 149.799 60.8095 149.799 62.1194C149.799 63.4293 148.855 64.3319 147.553 64.3319C146.251 64.3319 145.307 63.4293 145.307 62.1194C145.307 60.8081 146.251 59.907 147.553 59.907ZM147.553 63.4037C148.268 63.4037 148.762 62.8843 148.762 62.1194C148.762 61.3532 148.268 60.8338 147.553 60.8338C146.838 60.8338 146.344 61.3532 146.344 62.1194C146.345 62.8843 146.838 63.4037 147.553 63.4037Z" fill="white"/>
<path d="M150.641 64.2293V57.8982H151.67V64.2293H150.641Z" fill="white"/>
<path d="M154.759 59.907C156.061 59.907 157.005 60.8095 157.005 62.1194C157.005 63.4293 156.061 64.3319 154.759 64.3319C153.458 64.3319 152.513 63.4293 152.513 62.1194C152.513 60.8081 153.458 59.907 154.759 59.907ZM154.759 63.4037C155.474 63.4037 155.968 62.8843 155.968 62.1194C155.968 61.3532 155.474 60.8338 154.759 60.8338C154.044 60.8338 153.551 61.3532 153.551 62.1194C153.551 62.8843 154.044 63.4037 154.759 63.4037Z" fill="white"/>
<path d="M159.592 59.8893C160.222 59.8893 160.715 60.1538 160.962 60.6043L161.022 60.0256H161.984V64.0161C161.984 65.4204 161.142 66.296 159.779 66.296C158.57 66.296 157.745 65.6066 157.618 64.4829H158.657C158.724 65.0279 159.142 65.3503 159.781 65.3503C160.496 65.3503 160.954 64.8997 160.954 64.2009V63.5034C160.69 63.8947 160.172 64.1415 159.567 64.1415C158.376 64.1415 157.594 63.2485 157.594 62.0316C157.592 60.808 158.392 59.8893 159.592 59.8893ZM159.771 63.2417C160.486 63.2417 160.929 62.7399 160.929 62.0073C160.929 61.2924 160.494 60.7986 159.771 60.7986C159.082 60.7986 158.639 61.318 158.639 62.0073C158.639 62.7142 159.09 63.2417 159.771 63.2417Z" fill="white"/>
<path d="M162.935 58.554C162.935 58.2046 163.215 57.9321 163.573 57.9321C163.913 57.9321 164.193 58.2046 164.193 58.554C164.193 58.9034 163.913 59.184 163.573 59.184C163.217 59.184 162.935 58.902 162.935 58.554ZM163.055 60.0258H164.093V64.2294H163.055V60.0258Z" fill="white"/>
<path d="M164.977 63.0301C164.977 62.2557 165.538 61.77 166.534 61.6945L167.794 61.6014V61.5083C167.794 60.9377 167.454 60.7083 166.926 60.7083C166.314 60.7083 165.974 60.9633 165.974 61.4058H165.089C165.089 60.4952 165.838 59.9003 166.978 59.9003C168.11 59.9003 168.807 60.5127 168.807 61.6783V64.2307H167.896L167.819 63.6101C167.641 64.0445 167.071 64.3413 166.415 64.3413C165.522 64.34 164.977 63.8206 164.977 63.0301ZM167.802 62.5269V62.3056L166.925 62.3744C166.279 62.4338 166.032 62.6469 166.032 62.9869C166.032 63.37 166.287 63.5575 166.755 63.5575C167.393 63.5575 167.802 63.1744 167.802 62.5269Z" fill="white"/>
<path d="M80.2297 74.439V68.2185H84.0934V69.2222H81.3184V70.8222H83.8034V71.784H81.3184V73.4353H84.0921V74.439H80.2297Z" fill="white"/>
<path d="M85.1216 74.439V70.2354H86.0835L86.1684 70.7804C86.4329 70.3555 86.9428 70.1086 87.5134 70.1086C88.5684 70.1086 89.1134 70.7642 89.1134 71.8529V74.4404H88.0746V72.0998C88.0746 71.3929 87.7252 71.0529 87.1897 71.0529C86.5516 71.0529 86.1603 71.4954 86.1603 72.1767V74.4404H85.1216V74.439Z" fill="white"/>
<path d="M91.8949 70.0991C92.5249 70.0991 93.0187 70.3635 93.2655 70.8141L93.3249 70.2353H94.2868V74.2258C94.2868 75.6301 93.445 76.5057 92.0824 76.5057C90.8737 76.5057 90.0481 75.8163 89.9213 74.6926H90.96C91.0288 75.2376 91.4457 75.56 92.0838 75.56C92.7988 75.56 93.2575 75.1094 93.2575 74.4106V73.7132C92.993 74.1044 92.475 74.3513 91.8706 74.3513C90.6794 74.3513 89.897 73.4582 89.897 72.2413C89.8943 71.0178 90.6943 70.0991 91.8949 70.0991ZM92.073 73.4514C92.788 73.4514 93.2305 72.9496 93.2305 72.2171C93.2305 71.5021 92.7961 71.0083 92.073 71.0083C91.3836 71.0083 90.9411 71.5277 90.9411 72.2171C90.9411 72.924 91.3917 73.4514 92.073 73.4514Z" fill="white"/>
<path d="M95.1099 72.3371C95.1099 71.0178 95.9692 70.1072 97.2036 70.1072C98.4622 70.1072 99.2622 70.949 99.2622 72.2603V72.5746L96.0974 72.5827C96.1743 73.3233 96.5655 73.697 97.2548 73.697C97.8255 73.697 98.1992 73.4757 98.3179 73.0764H99.2798C99.1017 73.9951 98.3354 74.5482 97.2373 74.5482C95.9867 74.5496 95.1099 73.639 95.1099 72.3371ZM96.123 71.9203H98.2329C98.2329 71.3416 97.8336 70.9584 97.2117 70.9584C96.5992 70.9584 96.2255 71.2903 96.123 71.9203Z" fill="white"/>
<path d="M100.096 74.439V70.2354H101.058L101.143 70.7804C101.407 70.3555 101.917 70.1086 102.488 70.1086C103.543 70.1086 104.088 70.7642 104.088 71.8529V74.4404H103.049V72.0998C103.049 71.3929 102.699 71.0529 102.164 71.0529C101.526 71.0529 101.134 71.4954 101.134 72.1767V74.4404H100.096V74.439Z" fill="white"/>
<path d="M105.108 74.439V68.1079H106.155V70.7804C106.419 70.3716 106.911 70.1085 107.516 70.1085C108.554 70.1085 109.098 70.7642 109.098 71.8529V74.4403H108.059V72.0997C108.059 71.3928 107.71 71.0529 107.183 71.0529C106.527 71.0529 106.144 71.5129 106.144 72.1416V74.439H105.108Z" fill="white"/>
<path d="M109.93 73.2395C109.93 72.4651 110.492 71.9795 111.487 71.9039L112.747 71.8108V71.7177C112.747 71.1471 112.407 70.9178 111.88 70.9178C111.267 70.9178 110.927 71.1727 110.927 71.6152H110.042C110.042 70.7046 110.791 70.1097 111.931 70.1097C113.063 70.1097 113.76 70.7222 113.76 71.8877V74.4401H112.85L112.773 73.8196C112.595 74.254 112.024 74.5507 111.369 74.5507C110.475 74.5494 109.93 74.03 109.93 73.2395ZM112.757 72.7376V72.5164L111.88 72.5852C111.234 72.6445 110.987 72.8577 110.987 73.1976C110.987 73.5808 111.242 73.7683 111.71 73.7683C112.348 73.767 112.757 73.3838 112.757 72.7376Z" fill="white"/>
<path d="M117.418 71.1796H117.035C116.286 71.1796 115.818 71.5789 115.818 72.3965V74.4389H114.779V70.2434H115.757L115.816 70.8558C115.995 70.439 116.395 70.1584 116.956 70.1584C117.101 70.1584 117.245 70.1759 117.416 70.2177V71.1796H117.418Z" fill="white"/>
<path d="M118.005 68.7634C118.005 68.414 118.285 68.1415 118.643 68.1415C118.983 68.1415 119.265 68.414 119.265 68.7634C119.265 69.1129 118.984 69.3935 118.643 69.3935C118.285 69.3935 118.005 69.1115 118.005 68.7634ZM118.125 70.2353H119.163V74.4389H118.125V70.2353Z" fill="white"/>
<path d="M120.047 73.2395C120.047 72.4651 120.608 71.9795 121.604 71.9039L122.864 71.8108V71.7177C122.864 71.1471 122.524 70.9178 121.996 70.9178C121.384 70.9178 121.044 71.1727 121.044 71.6152H120.159C120.159 70.7046 120.908 70.1097 122.048 70.1097C123.179 70.1097 123.877 70.7222 123.877 71.8877V74.4401H122.966L122.889 73.8196C122.711 74.254 122.141 74.5507 121.485 74.5507C120.591 74.5494 120.047 74.03 120.047 73.2395ZM122.872 72.7376V72.5164L121.995 72.5852C121.349 72.6445 121.102 72.8577 121.102 73.1976C121.102 73.5808 121.357 73.7683 121.825 73.7683C122.463 73.767 122.872 73.3838 122.872 72.7376Z" fill="white"/>
<path d="M126.946 72.3371C126.946 71.0178 127.805 70.1072 129.04 70.1072C130.3 70.1072 131.098 70.949 131.098 72.2603V72.5746L127.934 72.5827C128.01 73.3233 128.402 73.697 129.091 73.697C129.662 73.697 130.035 73.4757 130.154 73.0764H131.116C130.938 73.9951 130.172 74.5482 129.073 74.5482C127.823 74.5496 126.946 73.639 126.946 72.3371ZM127.959 71.9203H130.069C130.069 71.3416 129.67 70.9584 129.048 70.9584C128.435 70.9584 128.062 71.2903 127.959 71.9203Z" fill="white"/>
<path d="M134.024 71.3333C134.024 69.4015 135.241 68.1172 137.062 68.1172C138.534 68.1172 139.632 68.9765 139.846 70.3121H138.696C138.483 69.589 137.862 69.164 137.037 69.164C135.887 69.164 135.164 69.9978 135.164 71.3252C135.164 72.6446 135.896 73.4945 137.037 73.4945C137.879 73.4945 138.526 73.052 138.73 72.3626H139.862C139.623 73.6726 138.483 74.5413 137.011 74.5413C135.199 74.5413 134.024 73.2813 134.024 71.3333Z" fill="white"/>
<path d="M140.567 68.7634C140.567 68.414 140.848 68.1415 141.205 68.1415C141.545 68.1415 141.827 68.414 141.827 68.7634C141.827 69.1129 141.547 69.3935 141.205 69.3935C140.848 69.3935 140.567 69.1115 140.567 68.7634ZM140.686 70.2353H141.725V74.4389H140.686V70.2353Z" fill="white"/>
<path d="M142.549 72.3369C142.549 71.0176 143.409 70.107 144.643 70.107C145.903 70.107 146.702 70.9488 146.702 72.26V72.5744L143.537 72.5825C143.614 73.3231 144.005 73.6968 144.694 73.6968C145.265 73.6968 145.639 73.4755 145.757 73.0762H146.719C146.541 73.9949 145.775 74.548 144.677 74.548C143.426 74.5494 142.549 73.6388 142.549 72.3369ZM143.367 69.7333L144.133 68.4058H145.196L145.962 69.7333H145.154L144.669 68.8915L144.175 69.7333H143.367ZM143.562 71.9201H145.672C145.672 71.3414 145.273 70.9582 144.651 70.9582C144.039 70.9582 143.665 71.2901 143.562 71.9201Z" fill="white"/>
<path d="M147.535 74.439V70.2354H148.497L148.582 70.7804C148.846 70.3555 149.356 70.1086 149.927 70.1086C150.982 70.1086 151.527 70.7642 151.527 71.8529V74.4404H150.488V72.0998C150.488 71.3929 150.139 71.0529 149.603 71.0529C148.965 71.0529 148.574 71.4954 148.574 72.1767V74.4404H147.535V74.439Z" fill="white"/>
<path d="M154.402 70.1072C155.551 70.1072 156.334 70.7453 156.444 71.7584H155.406C155.287 71.2822 154.937 71.0353 154.444 71.0353C153.78 71.0353 153.337 71.5372 153.337 72.3291C153.337 73.1209 153.746 73.6147 154.41 73.6147C154.929 73.6147 155.295 73.3597 155.406 72.8997H156.452C156.324 73.8778 155.508 74.5509 154.41 74.5509C153.134 74.5509 152.3 73.666 152.3 72.3304C152.3 71.0272 153.159 70.1072 154.402 70.1072Z" fill="white"/>
<path d="M157.107 68.7634C157.107 68.414 157.387 68.1415 157.745 68.1415C158.085 68.1415 158.367 68.414 158.367 68.7634C158.367 69.1129 158.086 69.3935 157.745 69.3935C157.387 69.3935 157.107 69.1115 157.107 68.7634ZM157.225 70.2353H158.264V74.4389H157.225V70.2353Z" fill="white"/>
<path d="M159.149 73.2395C159.149 72.4651 159.71 71.9795 160.706 71.9039L161.966 71.8108V71.7177C161.966 71.1471 161.626 70.9178 161.099 70.9178C160.486 70.9178 160.146 71.1727 160.146 71.6152H159.261C159.261 70.7046 160.01 70.1097 161.15 70.1097C162.282 70.1097 162.979 70.7222 162.979 71.8877V74.4401H162.069L161.992 73.8196C161.814 74.254 161.243 74.5507 160.587 74.5507C159.693 74.5494 159.149 74.03 159.149 73.2395ZM161.974 72.7376V72.5164L161.097 72.5852C160.451 72.6445 160.204 72.8577 160.204 73.1976C160.204 73.5808 160.459 73.7683 160.927 73.7683C161.565 73.767 161.974 73.3838 161.974 72.7376Z" fill="white"/>
<path d="M164.661 73.1626C164.669 73.5282 164.942 73.7589 165.418 73.7589C165.904 73.7589 166.167 73.5632 166.167 73.257C166.167 73.0439 166.056 72.8914 165.683 72.8064L164.926 72.6284C164.169 72.4584 163.802 72.1009 163.802 71.4291C163.802 70.6034 164.499 70.1097 165.469 70.1097C166.414 70.1097 167.052 70.6547 167.061 71.4709H166.074C166.066 71.1134 165.827 70.884 165.428 70.884C165.019 70.884 164.781 71.0716 164.781 71.3859C164.781 71.6247 164.969 71.7771 165.326 71.8621L166.083 72.0402C166.79 72.2021 167.146 72.5258 167.146 73.172C167.146 74.0233 166.423 74.5507 165.384 74.5507C164.338 74.5507 163.674 73.9895 163.674 73.1639H164.661V73.1626Z" fill="white"/>
</svg>
